<svg xmlns="http://www.w3.org/2000/svg" viewBox="0 0 80 80" role="img" aria-label="Virtual chips">
  <circle cx="40" cy="40" r="36" fill="#b91c1c"/>
  <circle cx="40" cy="40" r="31" fill="none" stroke="#7f1d1d" stroke-width="3"/>

  <rect x="36" y="3" width="8" height="18" rx="2" fill="#ffffff"/>
  <rect x="36" y="59" width="8" height="18" rx="2" fill="#ffffff"/>
  <rect x="3" y="36" width="18" height="8" rx="2" fill="#ffffff"/>
  <rect x="59" y="36" width="18" height="8" rx="2" fill="#ffffff"/>

  <rect x="36" y="3" width="8" height="18" rx="2" fill="#ffffff" transform="rotate(45 40 40)"/>
  <rect x="36" y="59" width="8" height="18" rx="2" fill="#ffffff" transform="rotate(45 40 40)"/>
  <rect x="3" y="36" width="18" height="8" rx="2" fill="#ffffff" transform="rotate(45 40 40)"/>
  <rect x="59" y="36" width="18" height="8" rx="2" fill="#ffffff" transform="rotate(45 40 40)"/>

  <circle cx="40" cy="40" r="22" fill="#f8fafc"/>
  <circle cx="40" cy="40" r="16" fill="#d7b46a"/>
  <circle cx="40" cy="40" r="9" fill="#fff7d6"/>
  <circle cx="40" cy="40" r="4" fill="#b91c1c"/>
</svg>