<svg xmlns="http://www.w3.org/2000/svg" viewBox="0 0 360 320" role="img" aria-labelledby="title desc">
  <title id="title">Blackjack dealer illustration</title>
  <desc id="desc">A polished cartoon blackjack dealer with cards and chips.</desc>

  <defs>
    <linearGradient id="felt" x1="0" x2="1" y1="0" y2="1">
      <stop offset="0" stop-color="#1f7a4d"/>
      <stop offset="1" stop-color="#083b2a"/>
    </linearGradient>
    <linearGradient id="hair" x1="0" x2="1" y1="0" y2="1">
      <stop offset="0" stop-color="#3b2418"/>
      <stop offset="1" stop-color="#17100d"/>
    </linearGradient>
    <filter id="shadow" x="-20%" y="-20%" width="140%" height="140%">
      <feDropShadow dx="0" dy="10" stdDeviation="10" flood-color="#041f17" flood-opacity="0.35"/>
    </filter>
  </defs>

  <rect width="360" height="320" rx="36" fill="url(#felt)"/>
  <circle cx="180" cy="132" r="102" fill="#ffffff" opacity="0.08"/>
  <circle cx="74" cy="64" r="20" fill="#d7b46a" opacity="0.45"/>
  <circle cx="296" cy="78" r="26" fill="#d7b46a" opacity="0.35"/>
  <circle cx="318" cy="248" r="18" fill="#ffffff" opacity="0.12"/>

  <g filter="url(#shadow)">
    <path d="M83 285c10-82 47-126 97-126s87 44 97 126H83z" fill="#102a43"/>
    <path d="M110 285l30-112 40 48 40-48 30 112H110z" fill="#f8fafc"/>
    <path d="M141 174l39 47 39-47" fill="none" stroke="#d7b46a" stroke-width="8" stroke-linecap="round" stroke-linejoin="round"/>
    <path d="M166 219h28l10 66h-48l10-66z" fill="#c62828"/>

    <path d="M98 112c0-62 35-93 84-93 52 0 84 35 80 98-16-31-42-48-79-50-37-2-65 13-85 45z" fill="url(#hair)"/>
    <path d="M102 108c-9 25-5 52 10 72 14 20 38 31 68 31 31 0 55-11 69-32 14-21 16-49 7-74-18-25-43-38-75-38-34 0-60 14-79 41z" fill="#f2c7a7"/>
    <path d="M105 109c17-23 43-35 78-35 31 0 56 12 73 36-7-45-34-72-75-73-42-1-70 25-76 72z" fill="url(#hair)"/>
    <path d="M124 120c11-17 29-27 55-29 30-2 53 8 69 30-11-44-35-66-72-66-34 0-56 22-52 65z" fill="#2a1a14" opacity="0.82"/>

    <circle cx="154" cy="126" r="5" fill="#111827"/>
    <circle cx="203" cy="126" r="5" fill="#111827"/>
    <path d="M169 145c7 5 15 5 22 0" fill="none" stroke="#b76e5c" stroke-width="4" stroke-linecap="round"/>
    <path d="M160 162c12 10 29 10 41 0" fill="none" stroke="#8a3d33" stroke-width="5" stroke-linecap="round"/>
    <circle cx="119" cy="145" r="16" fill="#f2c7a7"/>
    <circle cx="243" cy="145" r="16" fill="#f2c7a7"/>

    <path d="M104 202c-28 18-42 42-43 73" fill="none" stroke="#f2c7a7" stroke-width="18" stroke-linecap="round"/>
    <path d="M256 202c28 18 42 42 43 73" fill="none" stroke="#f2c7a7" stroke-width="18" stroke-linecap="round"/>

    <g transform="translate(50 205) rotate(-11)">
      <rect width="62" height="86" rx="8" fill="#ffffff"/>
      <rect x="4" y="4" width="54" height="78" rx="6" fill="none" stroke="#d9e2ec" stroke-width="2"/>
      <text x="15" y="31" fill="#c62828" font-family="Arial, sans-serif" font-size="25" font-weight="700">A</text>
      <text x="17" y="65" fill="#c62828" font-family="Arial, sans-serif" font-size="30">&#9829;</text>
    </g>

    <g transform="translate(248 194) rotate(12)">
      <rect width="62" height="86" rx="8" fill="#ffffff"/>
      <rect x="4" y="4" width="54" height="78" rx="6" fill="none" stroke="#d9e2ec" stroke-width="2"/>
      <text x="15" y="31" fill="#111827" font-family="Arial, sans-serif" font-size="25" font-weight="700">K</text>
      <text x="17" y="65" fill="#111827" font-family="Arial, sans-serif" font-size="30">&#9824;</text>
    </g>

    <g>
      <circle cx="145" cy="282" r="18" fill="#d7b46a"/>
      <circle cx="145" cy="282" r="11" fill="none" stroke="#fff2b8" stroke-width="3"/>
      <circle cx="181" cy="282" r="18" fill="#c62828"/>
      <circle cx="181" cy="282" r="11" fill="none" stroke="#ffd3d3" stroke-width="3"/>
      <circle cx="217" cy="282" r="18" fill="#0967d2"/>
      <circle cx="217" cy="282" r="11" fill="none" stroke="#cfe3ff" stroke-width="3"/>
    </g>
  </g>
</svg>
